# xmcd CD database file
#
# Track frame offsets:
#	150
#	24720
#	43001
#	76983
#	95029
#	117317
#	135751
#	148893
#	165366
#	179692
#	198615
#	220249
#	236334
#	249836
#	262324
#	275929
#	291851
#	302109
#
# Disc length: 4128 seconds
#
# Revision: 0
# Processed by: cddbd v1.5.2PL0 Copyright (c) Steve Scherf et al.
# Submitted via: CDex 1.70beta2
#
DISCID=14101e12
DTITLE=Various Artist - CDR by tw - Funky Jazzy Boogie Tunes
DYEAR=2006
DGENRE=Jazz
TTITLE0=Dave Brubeck/Take Five
TTITLE1=The All Seeing I/Beat Goes On
TTITLE2=Mr. Scruff/Get A Move On
TTITLE3=Average White Band/Pick Up The Pieces
TTITLE4=Wild Cherry/Play That Funky Music
TTITLE5=Oddysey/Going Back To My Roots
TTITLE6=Martha Reeves and the Vandellas/Nowhere To Run
TTITLE7=Lionrock/Rude Boy Rock
TTITLE8=Frank Popp Ensemble/Love Is On Our Side
TTITLE9=Traks/Long Train Running
TTITLE10=Scissor Sisters/I Don't Feel Like Dancin'
TTITLE11=Electric Six/Danger High Voltage
TTITLE12=Teddybears Sthlm and Mad Cobra/Cobrastyle
TTITLE13=Gry with FM Einheit/Princess Crockodile
TTITLE14=Gnarls Barkley/Crazy
TTITLE15=N.E.R.D./She Wants To Move
TTITLE16=Wolfgang Hartmeyer/Every Day
TTITLE17=Charles Wilp/Silky Stockings
EXTD=YEAR: 2006
EXTT0=
EXTT1=
EXTT2=
EXTT3=
EXTT4=
EXTT5=
EXTT6=
EXTT7=
EXTT8=
EXTT9=
EXTT10=
EXTT11=
EXTT12=
EXTT13=
EXTT14=
EXTT15=
EXTT16=
EXTT17=
PLAYORDER=
